<svg width="292" height="41" viewBox="0 0 292 41" fill="none" xmlns="http://www.w3.org/2000/svg">
<g filter="url(#filter0_n_289_99)">
<path d="M0.000149637 40.5996V-0.000393391H25.5202V6.95961H7.65615V16.7616H24.1282V23.7216H7.65615V40.5996H0.000149637ZM33.3026 40.5996V-0.000393391H50.9346C53.4866 -0.000393391 55.7099 0.444273 57.6046 1.33361C59.4992 2.22294 60.9686 3.47961 62.0126 5.10361C63.0566 6.72761 63.5786 8.64161 63.5786 10.8456V11.5416C63.5786 13.9776 62.9986 15.9496 61.8386 17.4576C60.6786 18.9656 59.2479 20.0676 57.5466 20.7636V21.8076C59.0932 21.8849 60.2919 22.4263 61.1426 23.4316C61.9932 24.3983 62.4186 25.6936 62.4186 27.3176V40.5996H54.7626V28.4196C54.7626 27.4916 54.5112 26.7376 54.0086 26.1576C53.5446 25.5776 52.7519 25.2876 51.6306 25.2876H40.9586V40.5996H33.3026ZM40.9586 18.3276H50.1226C51.9399 18.3276 53.3512 17.8443 54.3566 16.8776C55.4006 15.8723 55.9226 14.5576 55.9226 12.9336V12.3536C55.9226 10.7296 55.4199 9.43427 54.4146 8.46761C53.4092 7.46227 51.9786 6.95961 50.1226 6.95961H40.9586V18.3276ZM106.362 40.5996V-0.000393391H120.92L128.982 35.3796H130.026V-0.000393391H137.566V40.5996H123.008L114.946 5.21961H113.902V40.5996H106.362ZM156.934 40.5996V6.95961H145.102V-0.000393391H176.422V6.95961H164.59V40.5996H156.934ZM183.955 40.5996V-0.000393391H210.055V6.95961H191.611V16.6456H208.431V23.6056H191.611V33.6396H210.403V40.5996H183.955ZM218.391 40.5996V-0.000393391H232.949L241.011 35.3796H242.055V-0.000393391H249.595V40.5996H235.037L226.975 5.21961H225.931V40.5996H218.391ZM258.406 40.5996V33.8716H263.742V6.72761H258.406V-0.000393391H275.11C280.562 -0.000393391 284.699 1.39161 287.522 4.17561C290.383 6.92094 291.814 11.0196 291.814 16.4716V24.1276C291.814 29.5796 290.383 33.6976 287.522 36.4816C284.699 39.2269 280.562 40.5996 275.11 40.5996H258.406ZM271.398 33.6396H275.226C278.319 33.6396 280.581 32.8276 282.012 31.2036C283.443 29.5796 284.158 27.2983 284.158 24.3596V16.2396C284.158 13.2623 283.443 10.9809 282.012 9.39561C280.581 7.77161 278.319 6.95961 275.226 6.95961H271.398V33.6396Z" fill="#F5672D"/>
</g>
<defs>
<filter id="filter0_n_289_99" x="0" y="0" width="291.812" height="40.5996" filterUnits="userSpaceOnUse" color-interpolation-filters="sRGB">
<feFlood flood-opacity="0" result="BackgroundImageFix"/>
<feBlend mode="normal" in="SourceGraphic" in2="BackgroundImageFix" result="shape"/>
<feTurbulence type="fractalNoise" baseFrequency="2.5 2.5" stitchTiles="stitch" numOctaves="3" result="noise" seed="6989" />
<feColorMatrix in="noise" type="luminanceToAlpha" result="alphaNoise" />
<feComponentTransfer in="alphaNoise" result="coloredNoise1">
<feFuncA type="discrete" tableValues="1 1 1 1 1 1 1 1 1 1 1 1 1 1 1 1 1 1 1 1 1 1 1 1 1 1 1 1 1 1 1 1 1 1 1 1 1 1 1 1 1 1 1 1 1 1 1 1 1 1 1 0 0 0 0 0 0 0 0 0 0 0 0 0 0 0 0 0 0 0 0 0 0 0 0 0 0 0 0 0 0 0 0 0 0 0 0 0 0 0 0 0 0 0 0 0 0 0 0 0 "/>
</feComponentTransfer>
<feComposite operator="in" in2="shape" in="coloredNoise1" result="noise1Clipped" />
<feFlood flood-color="rgba(0, 0, 0, 0.25)" result="color1Flood" />
<feComposite operator="in" in2="noise1Clipped" in="color1Flood" result="color1" />
<feMerge result="effect1_noise_289_99">
<feMergeNode in="shape" />
<feMergeNode in="color1" />
</feMerge>
</filter>
</defs>
</svg>
