<svg width="14" height="13" viewBox="0 0 14 13" fill="none" xmlns="http://www.w3.org/2000/svg">
<path d="M0.610018 0.432708C0.647181 0.159077 0.899131 -0.0326155 1.17276 0.00454879L5.63182 0.610177C5.90545 0.647342 6.09714 0.899291 6.05998 1.17292C6.02281 1.44655 5.77087 1.63824 5.49724 1.60108L1.53363 1.06274L0.99529 5.02635C0.958126 5.29998 0.706177 5.49167 0.432547 5.45451C0.158916 5.41735 -0.0327766 5.1654 0.00438782 4.89177L0.610018 0.432708ZM13.1055 12.5L12.8423 12.9251C8.01832 9.93928 5.35281 6.90817 0.707549 0.802754L1.10547 0.499999L1.50339 0.197245C6.13164 6.28031 8.70654 9.1892 13.3686 12.0749L13.1055 12.5Z" fill="#ECA85A"/>
</svg>
