<svg width="10" height="9" viewBox="0 0 10 9" fill="none" xmlns="http://www.w3.org/2000/svg">
<path d="M8.47848 0.396627C8.42185 0.126353 8.15684 -0.0468355 7.88657 0.00979754L3.48222 0.932685C3.21195 0.989318 3.03876 1.25433 3.09539 1.5246C3.15203 1.79487 3.41703 1.96806 3.68731 1.91143L7.60228 1.09108L8.42263 5.00606C8.47926 5.27633 8.74427 5.44952 9.01454 5.39289C9.28482 5.33626 9.458 5.07125 9.40137 4.80097L8.47848 0.396627ZM0.210938 8.27734L0.422592 8.73034C3.94632 7.08393 5.6467 4.99744 8.40766 0.772699L7.98911 0.499169L7.57056 0.22564C4.83338 4.41401 3.26009 6.30079 -0.000716847 7.82435L0.210938 8.27734Z" fill="#ECA85A"/>
</svg>
